<svg version="1.1" id="Layer_1" xmlns="http://www.w3.org/2000/svg" xmlns:xlink="http://www.w3.org/1999/xlink" x="0px" y="0px"
	 width="100%" viewBox="0 0 2002 422" enable-background="new 0 0 2002 422" xml:space="preserve">

<path fill="#000000" opacity="1.000000" stroke="none" 
	d="
M1672.531372,1.000000 
	C1673.000000,15.805488 1673.000000,30.610975 1673.000000,46.081665 
	C1590.697876,46.081665 1508.841919,46.081665 1426.760498,46.081665 
	C1426.760498,57.342926 1426.760498,67.937561 1426.760498,78.927666 
	C1497.042969,78.927666 1567.140503,78.927666 1637.539551,78.927666 
	C1637.539551,95.537971 1637.539551,111.754784 1637.539551,128.506760 
	C1567.284058,128.506760 1497.211670,128.506760 1426.836914,128.506760 
	C1426.836914,139.609970 1426.836914,150.182785 1426.836914,161.312225 
	C1508.663208,161.312225 1590.389160,161.312225 1672.477783,161.312225 
	C1672.477783,178.061279 1672.477783,194.260345 1672.477783,211.003021 
	C1670.659790,211.003021 1668.881104,211.003021 1667.102417,211.003021 
	C1592.610718,211.003021 1518.118896,211.015060 1443.627197,210.997833 
	C1407.600586,210.989502 1378.922485,182.377182 1378.842163,146.324631 
	C1378.780396,118.661171 1378.659180,90.996124 1378.877075,63.334248 
	C1379.101807,34.795567 1392.252930,14.226170 1417.972168,1.360782 
	C1502.687622,1.000000 1587.375122,1.000000 1672.531372,1.000000 
z"/>
<path fill="#000000" opacity="1.000000" stroke="none" 
	d="
M338.531342,1.000000 
	C355.262451,13.784152 361.886749,30.528059 361.691193,51.150509 
	C361.206116,102.306114 361.531769,153.469421 361.531769,204.629623 
	C361.531769,206.597397 361.531799,208.565186 361.531799,210.765732 
	C345.505768,210.765732 329.927429,210.765732 313.995850,210.765732 
	C313.995850,151.057205 313.995850,91.491478 313.995850,30.331045 
	C312.424225,32.709942 311.611298,33.792583 310.950897,34.961407 
	C282.156097,85.922943 253.404739,136.909058 224.575500,187.851089 
	C214.615417,205.450790 199.510208,215.461624 179.207062,215.684311 
	C158.613586,215.910172 143.288696,205.877991 133.189362,188.145599 
	C104.469215,137.718811 75.908730,87.201073 47.281956,36.721088 
	C46.416786,35.195465 45.513290,33.691574 43.739365,32.379822 
	C43.739365,91.706635 43.739365,151.033447 43.739365,211.002701 
	C29.443785,211.002701 15.690548,211.002701 1.468656,211.001343 
	C1.000000,147.979111 1.000000,84.958206 1.313949,21.327753 
	C7.085266,14.145461 12.542633,7.572731 18.000000,1.000000 
	C37.354229,1.000000 56.708454,1.000000 76.595100,1.335226 
	C82.957657,8.415454 90.013817,14.448803 94.411583,22.025230 
	C116.758377,60.524044 138.408401,99.427193 160.320648,138.178436 
	C166.295410,148.744644 172.333282,159.275177 178.579483,170.238571 
	C179.944748,167.930588 180.980759,166.237427 181.961365,164.512756 
	C197.317047,137.504822 212.058029,110.123680 228.182846,83.583244 
	C245.052261,55.817234 256.625366,24.683054 280.000000,1.000000 
	C299.354218,1.000000 318.708466,1.000000 338.531342,1.000000 
z"/>
<path fill="#000000" opacity="1.000000" stroke="none" 
	d="
M656.531372,1.000000 
	C666.410217,6.034209 675.287415,11.702927 682.047058,20.249710 
	C691.797607,32.578232 696.891907,46.548943 696.965576,62.216232 
	C697.096436,90.047417 697.132812,117.880424 696.969971,145.711273 
	C696.754395,182.562012 667.965881,210.998749 631.120789,211.001511 
	C576.957092,211.005554 522.793457,211.005814 468.629761,211.001389 
	C431.574005,210.998367 403.068787,182.808273 402.861694,145.723785 
	C402.705353,117.726196 402.340454,89.716034 402.968567,61.731674 
	C403.596863,33.738640 417.000244,13.471757 442.789673,1.280710 
	C514.020874,1.000000 585.041809,1.000000 656.531372,1.000000 
M503.500031,46.169018 
	C486.042236,46.169018 468.584442,46.169018 450.948578,46.169018 
	C450.948578,84.833809 450.948578,123.010902 450.948578,161.246063 
	C517.124756,161.246063 582.882263,161.246063 648.778076,161.246063 
	C648.778076,122.832314 648.778076,84.643433 648.778076,46.169041 
	C600.432007,46.169041 552.466003,46.169041 503.500031,46.169018 
z"/>
<path fill="#000000" opacity="1.000000" stroke="none" 
	d="
M1356.531372,1.000005 
	C1355.963501,2.089735 1355.113281,3.503314 1353.863403,4.222397 
	C1308.748047,30.181816 1263.595581,56.076809 1218.447876,81.980095 
	C1206.775024,88.677353 1195.100952,95.372314 1182.809937,102.422470 
	C1243.975586,138.514786 1304.660767,174.323654 1365.345947,210.132507 
	C1365.266235,210.422012 1365.186523,210.711517 1365.106812,211.001022 
	C1363.521240,211.001022 1361.935669,211.001022 1360.350098,211.001022 
	C1333.353638,211.001022 1306.356567,210.914581 1279.361328,211.088333 
	C1274.994019,211.116455 1271.367920,210.016617 1267.671753,207.826447 
	C1221.170166,180.271317 1174.609253,152.816360 1128.060913,125.339897 
	C1126.950684,124.684479 1125.812256,124.076828 1124.143555,123.142723 
	C1124.143555,152.616882 1124.143555,181.501633 1124.143555,210.692627 
	C1108.031494,210.692627 1092.300659,210.692627 1075.999268,210.692627 
	C1075.999268,141.120178 1075.999268,71.528748 1075.999634,1.468657 
	C1091.687622,1.000000 1107.375122,1.000000 1123.531494,1.468657 
	C1124.000244,28.156433 1124.000244,54.375549 1124.000244,81.228882 
	C1125.372437,80.485687 1126.074341,80.124718 1126.758301,79.732239 
	C1163.079956,58.890709 1199.415649,38.073387 1235.709595,17.183681 
	C1244.875000,11.908394 1253.906860,6.400855 1263.000000,1.000014 
	C1294.020874,1.000000 1325.041870,1.000000 1356.531372,1.000005 
z"/>
<path fill="#000000" opacity="1.000000" stroke="none" 
	d="
M993.531372,0.999989 
	C996.789856,2.661271 999.563843,4.349906 1002.372070,5.979562 
	C1023.525757,18.255247 1034.030151,37.262402 1034.336426,61.071743 
	C1034.968506,110.219604 1034.524048,159.381317 1034.511841,208.537338 
	C1034.511597,209.181473 1034.372314,209.825577 1034.268433,210.725830 
	C1018.227966,210.725830 1002.324768,210.725830 985.993286,210.725830 
	C985.993286,156.112503 985.993286,101.543167 985.993286,46.571754 
	C919.691284,46.571754 853.814148,46.571754 787.338867,46.571754 
	C787.338867,101.160057 787.338867,155.853210 787.338867,210.772430 
	C771.131348,210.772430 755.518555,210.772430 739.416443,210.772430 
	C739.333862,209.422455 739.171021,207.997452 739.170593,206.572418 
	C739.157349,159.082687 738.876282,111.590645 739.265381,64.104111 
	C739.500366,35.424034 752.510925,14.195196 778.885498,1.332916 
	C850.354248,1.000000 921.708435,1.000000 993.531372,0.999989 
z"/>
<path fill="#000000" opacity="1.000000" stroke="none" 
	d="
M2003.000000,1.499970 
	C1992.214111,13.990287 1981.368164,25.927162 1970.653809,37.981018 
	C1940.239136,72.197662 1909.839722,106.428223 1879.594849,140.794571 
	C1877.842773,142.785309 1876.696899,146.021790 1876.661743,148.696945 
	C1876.413086,167.521088 1876.529907,186.350006 1876.529907,205.177399 
	C1876.529907,206.979385 1876.529907,208.781372 1876.529907,210.785339 
	C1860.613281,210.785339 1845.166748,210.785339 1828.998291,210.785339 
	C1828.998291,209.290268 1828.998291,207.708969 1828.998291,206.127670 
	C1828.998291,187.300278 1828.888062,168.471725 1829.087646,149.646454 
	C1829.129639,145.689407 1827.983765,142.812149 1825.373901,139.883621 
	C1784.832397,94.393387 1744.391968,48.812851 1703.933105,3.248975 
	C1703.491943,2.752124 1703.115967,2.197261 1702.854858,1.334711 
	C1723.687622,1.000000 1744.375122,1.000000 1765.607178,1.329624 
	C1794.930664,34.077942 1823.709595,66.496635 1852.636108,99.081413 
	C1854.153198,97.435905 1855.294189,96.239006 1856.391113,95.002869 
	C1878.717896,69.843864 1901.067505,44.704815 1923.342041,19.499662 
	C1928.690796,13.447459 1933.787354,7.172470 1939.000000,0.999970 
	C1960.333374,1.000000 1981.666626,1.000000 2003.000000,1.499970 
z"/>
<path fill="#000000" opacity="1.000000" stroke="none" 
	d="
M582.468628,423.000000 
	C570.700256,417.415527 560.602722,410.370483 553.326477,399.789337 
	C545.485291,388.386658 541.362488,375.846588 541.132568,361.732361 
	C557.172241,361.732361 572.918213,361.732361 589.077637,361.732361 
	C589.077637,366.919830 589.077637,371.851196 589.077637,376.961670 
	C675.196838,376.961670 760.902283,376.961670 847.090332,376.961670 
	C847.090332,371.885498 847.090332,366.971161 847.090332,361.771088 
	C863.308899,361.771088 879.045776,361.771088 894.767029,361.771088 
	C896.545044,386.151367 879.081238,412.300171 854.210083,422.717224 
	C763.645752,423.000000 673.291565,423.000000 582.468628,423.000000 
z"/>



<path fill="#000000" opacity="1.000000" stroke="none" 
	d="
M2003.000000,352.531616 
	C1988.921143,364.510986 1971.532227,363.383270 1960.368896,349.852722 
	C1962.861450,346.966797 1965.412598,344.013062 1967.486206,341.612183 
	C1971.865479,344.041504 1975.551147,346.672516 1979.652466,348.148926 
	C1982.254639,349.085693 1985.647949,348.889099 1988.357910,348.088623 
	C1990.165283,347.554749 1992.465820,345.131653 1992.575195,343.427551 
	C1992.680908,341.781250 1990.618286,339.145874 1988.881714,338.396332 
	C1984.327759,336.430664 1979.353149,335.467438 1974.690918,333.718750 
	C1967.110718,330.875580 1963.760864,326.084229 1963.721191,318.744873 
	C1963.656494,306.796967 1975.366821,298.423187 1988.624390,301.512543 
	C1993.374268,302.619385 1997.755981,305.305267 2002.652832,307.135193 
	C2003.000000,308.714355 2003.000000,310.428711 2002.681885,312.689514 
	C2000.775269,315.268219 1999.186646,317.300415 1998.250000,318.498413 
	C1993.120361,316.477051 1988.829224,314.304108 1984.279419,313.158173 
	C1981.103638,312.358307 1977.061646,312.740723 1976.261108,316.975616 
	C1975.497925,321.013306 1979.138062,322.103485 1982.117554,323.184418 
	C1984.608521,324.088043 1987.317993,324.498718 1989.666870,325.660889 
	C1994.209473,327.908691 1998.566162,330.532227 2003.000000,333.000000 
	C2003.000000,339.354401 2003.000000,345.708801 2003.000000,352.531616 
z"/>


<path fill="#000000" opacity="1.000000" stroke="none" 
	d="
M699.159546,292.228333 
	C699.165588,295.327850 699.165588,297.961182 699.165588,300.878723 
	C666.415283,300.878723 634.014771,300.878723 601.604614,300.878723 
	C597.344849,280.222809 612.478577,266.868866 628.408752,267.812653 
	C643.182556,268.687866 658.048889,267.994385 672.874512,268.000641 
	C687.708313,268.006927 697.653381,277.004608 699.159546,292.228333 
z"/>
<path fill="#000000" opacity="1.000000" stroke="none" 
	d="
M736.999329,295.073120 
	C737.408447,277.979645 747.553040,268.000977 764.050110,267.999542 
	C779.042786,267.998230 794.035400,267.995331 809.028076,268.000336 
	C824.906189,268.005646 835.148621,278.303802 835.166931,294.271851 
	C835.169373,296.398193 835.167236,298.524506 835.167236,300.906097 
	C802.359192,300.906097 769.959961,300.906097 736.999329,300.906097 
	C736.999329,299.091736 736.999329,297.316406 736.999329,295.073120 
z"/>
<path fill="#000000" opacity="1.000000" stroke="none" 
	d="
M1638.792847,338.999390 
	C1636.283813,326.395782 1638.715332,315.560150 1648.610352,307.486603 
	C1657.776855,300.007629 1668.340820,298.951996 1679.193726,303.258606 
	C1691.979248,308.332123 1699.083740,322.211884 1696.630249,336.382050 
	C1694.255493,350.097504 1683.546265,360.070923 1670.214355,360.982758 
	C1654.994141,362.023743 1643.521973,354.122070 1638.792847,338.999390 
M1666.675537,348.967957 
	C1674.527344,349.005615 1680.153809,345.411743 1682.880127,338.112732 
	C1685.646484,330.706818 1684.669312,323.561005 1678.964111,317.786621 
	C1674.089355,312.852814 1668.001831,311.771240 1661.475708,314.118622 
	C1654.193848,316.737854 1649.946045,324.327179 1650.707031,333.001465 
	C1651.466431,341.657562 1656.622314,347.079285 1666.675537,348.967957 
z"/>
<path fill="#000000" opacity="1.000000" stroke="none" 
	d="
M1512.133667,348.069031 
	C1503.332886,359.716766 1490.338501,363.881958 1477.406250,359.443695 
	C1465.334473,355.300720 1457.875000,344.426361 1457.879761,330.977997 
	C1457.884521,317.542633 1465.368774,306.664001 1477.445190,302.539124 
	C1489.261230,298.503235 1502.483398,302.029724 1510.159546,311.264221 
	C1518.444092,321.230713 1519.278442,335.265869 1512.133667,348.069031 
M1472.521851,322.394409 
	C1468.948608,331.390076 1470.587280,340.025970 1476.846436,345.183655 
	C1484.052612,351.121674 1494.697266,349.990021 1500.389648,342.680725 
	C1506.748657,334.515472 1505.071411,321.735962 1496.887817,315.999542 
	C1488.781982,310.317688 1478.859863,312.676453 1472.521851,322.394409 
z"/>
<path fill="#000000" opacity="1.000000" stroke="none" 
	d="
M1578.888794,360.118652 
	C1571.597290,360.118774 1564.789185,360.118774 1557.645020,360.118774 
	C1557.645020,340.649445 1557.645020,321.471313 1557.645020,302.101593 
	C1565.988403,302.101593 1574.143311,301.618866 1582.210815,302.251465 
	C1588.891357,302.775360 1594.225342,306.468933 1596.446411,313.134308 
	C1598.652100,319.753540 1596.292358,325.192230 1590.759521,329.312775 
	C1598.935913,335.222504 1601.420288,340.886810 1599.136108,348.159454 
	C1596.728271,355.825928 1590.081665,359.847839 1578.888794,360.118652 
M1569.686035,344.440796 
	C1569.508789,346.626556 1569.624390,348.396423 1572.692871,348.135864 
	C1575.502686,347.897247 1578.359619,348.227448 1581.172729,348.010101 
	C1584.811890,347.728943 1587.076904,345.606384 1587.217285,341.934265 
	C1587.366577,338.033539 1585.146362,335.538818 1581.325562,335.179504 
	C1577.579712,334.827240 1573.774902,335.102753 1569.685425,335.102753 
	C1569.685425,338.190338 1569.685425,340.826935 1569.686035,344.440796 
M1584.007812,322.416534 
	C1586.841064,315.273560 1580.891357,312.425323 1570.098755,314.417542 
	C1570.098755,318.102600 1570.098755,321.780151 1570.098755,327.007050 
	C1575.116943,325.545929 1579.358154,324.311005 1584.007812,322.416534 
z"/>
<path fill="#000000" opacity="1.000000" stroke="none" 
	d="
M1392.122803,338.494324 
	C1391.818115,345.649078 1391.818115,352.458069 1391.818115,359.640015 
	C1387.563721,359.640015 1383.699097,359.640015 1379.573975,359.640015 
	C1379.573975,340.519897 1379.573975,321.458130 1379.573975,302.081512 
	C1387.967407,302.081512 1396.140503,301.541870 1404.206787,302.238403 
	C1411.761963,302.890808 1417.233276,307.459930 1419.347656,314.898865 
	C1421.463379,322.341980 1419.886230,329.091888 1413.735107,334.328064 
	C1412.985474,334.966125 1412.193848,335.554962 1411.191162,336.349304 
	C1416.025024,344.016449 1420.785156,351.566681 1426.101685,359.999420 
	C1421.076294,359.999420 1416.711060,360.187927 1412.383179,359.868530 
	C1411.284058,359.787384 1410.038208,358.257629 1409.315796,357.107178 
	C1406.305908,352.314545 1403.217285,347.541382 1400.655640,342.507599 
	C1398.802002,338.865051 1396.466553,337.165771 1392.122803,338.494324 
M1395.459229,313.913177 
	C1394.206543,314.701965 1391.985596,315.373291 1391.873169,316.300446 
	C1391.446167,319.819977 1391.701050,323.422272 1391.701050,327.128723 
	C1395.406738,327.128723 1398.387573,327.293213 1401.342773,327.088135 
	C1405.261353,326.816223 1407.520020,324.314362 1407.556519,320.593201 
	C1407.593750,316.815887 1405.197632,314.505768 1401.367920,314.047241 
	C1399.728516,313.850922 1398.054077,313.948639 1395.459229,313.913177 
z"/>
<path fill="#000000" opacity="1.000000" stroke="none" 
	d="
M1883.036255,304.966919 
	C1899.072021,296.809845 1916.871338,301.691071 1922.839233,316.097809 
	C1919.400269,317.797760 1915.922607,319.516846 1912.529541,321.194122 
	C1905.465454,313.239960 1899.252686,311.211670 1891.791260,314.221619 
	C1885.041260,316.944519 1881.106567,324.110107 1881.693115,332.611725 
	C1882.245972,340.629211 1886.814453,346.534058 1893.935425,348.435272 
	C1901.377197,350.422119 1907.435059,347.714874 1912.667847,339.744171 
	C1916.133179,341.323181 1919.678101,342.938477 1923.393921,344.631622 
	C1922.051025,350.518311 1918.315552,354.147369 1913.664917,356.933960 
	C1900.498901,364.822937 1883.094238,361.292114 1874.411865,349.067902 
	C1865.331665,336.283539 1867.420166,317.798676 1879.100464,307.804230 
	C1880.234741,306.833832 1881.502930,306.020203 1883.036255,304.966919 
z"/>
<path fill="#000000" opacity="1.000000" stroke="none" 
	d="
M1764.985352,301.890686 
	C1769.115234,301.890686 1772.748535,301.890686 1776.679443,301.890686 
	C1776.679443,305.975281 1776.679443,309.687561 1776.679443,313.782288 
	C1771.213623,313.782288 1765.943970,313.782288 1760.202881,313.782288 
	C1760.202881,329.204834 1760.202881,344.260254 1760.202881,359.659210 
	C1755.862915,359.659210 1751.995728,359.659210 1747.809570,359.659210 
	C1747.809570,344.561951 1747.809570,329.632721 1747.809570,314.121368 
	C1742.142456,314.121368 1736.765137,314.121368 1731.078979,314.121368 
	C1731.078979,309.832214 1731.078979,306.119568 1731.078979,301.890686 
	C1742.276001,301.890686 1753.382202,301.890686 1764.985352,301.890686 
z"/>
<path fill="#000000" opacity="1.000000" stroke="none" 
	d="
M1828.722412,351.914612 
	C1828.722290,354.706512 1828.722290,357.012085 1828.722290,359.672607 
	C1824.547729,359.672607 1820.680908,359.672607 1816.542969,359.672607 
	C1816.542969,340.554108 1816.542969,321.515198 1816.542969,302.222565 
	C1820.516479,302.222565 1824.281494,302.222565 1828.722412,302.222565 
	C1828.722412,318.617676 1828.722412,335.022980 1828.722412,351.914612 
z"/>

<path fill="none" opacity="1.000000" stroke="none" 
	d="
M1666.260742,348.944427 
	C1656.622314,347.079285 1651.466431,341.657562 1650.707031,333.001465 
	C1649.946045,324.327179 1654.193848,316.737854 1661.475708,314.118622 
	C1668.001831,311.771240 1674.089355,312.852814 1678.964111,317.786621 
	C1684.669312,323.561005 1685.646484,330.706818 1682.880127,338.112732 
	C1680.153809,345.411743 1674.527344,349.005615 1666.260742,348.944427 
z"/>
<path fill="none" opacity="1.000000" stroke="none" 
	d="
M1472.701172,322.050598 
	C1478.859863,312.676453 1488.781982,310.317688 1496.887817,315.999542 
	C1505.071411,321.735962 1506.748657,334.515472 1500.389648,342.680725 
	C1494.697266,349.990021 1484.052612,351.121674 1476.846436,345.183655 
	C1470.587280,340.025970 1468.948608,331.390076 1472.701172,322.050598 
z"/>
<path fill="none" opacity="1.000000" stroke="none" 
	d="
M1569.685791,343.952148 
	C1569.685425,340.826935 1569.685425,338.190338 1569.685425,335.102753 
	C1573.774902,335.102753 1577.579712,334.827240 1581.325562,335.179504 
	C1585.146362,335.538818 1587.366577,338.033539 1587.217285,341.934265 
	C1587.076904,345.606384 1584.811890,347.728943 1581.172729,348.010101 
	C1578.359619,348.227448 1575.502686,347.897247 1572.692871,348.135864 
	C1569.624390,348.396423 1569.508789,346.626556 1569.685791,343.952148 
z"/>
<path fill="none" opacity="1.000000" stroke="none" 
	d="
M1583.803711,322.746307 
	C1579.358154,324.311005 1575.116943,325.545929 1570.098755,327.007050 
	C1570.098755,321.780151 1570.098755,318.102600 1570.098755,314.417542 
	C1580.891357,312.425323 1586.841064,315.273560 1583.803711,322.746307 
z"/>
<path fill="none" opacity="1.000000" stroke="none" 
	d="
M1395.927368,313.912964 
	C1398.054077,313.948639 1399.728516,313.850922 1401.367920,314.047241 
	C1405.197632,314.505768 1407.593750,316.815887 1407.556519,320.593201 
	C1407.520020,324.314362 1405.261353,326.816223 1401.342773,327.088135 
	C1398.387573,327.293213 1395.406738,327.128723 1391.701050,327.128723 
	C1391.701050,323.422272 1391.446167,319.819977 1391.873169,316.300446 
	C1391.985596,315.373291 1394.206543,314.701965 1395.927368,313.912964 
z"/>
</svg>