<svg version="1.1" id="Layer_1" xmlns="http://www.w3.org/2000/svg" xmlns:xlink="http://www.w3.org/1999/xlink" x="0px" y="0px"
	 width="100%" viewBox="0 0 1452 1032" enable-background="new 0 0 1452 1032" xml:space="preserve">

<path fill="#000000" opacity="1.000000" stroke="none" 
	d="
M105.339310,72.307556 
	C125.830803,62.068268 147.135406,57.383747 169.710968,57.409340 
	C290.686188,57.546497 411.664490,57.965584 532.635925,57.273857 
	C596.406311,56.909214 650.867126,99.357971 668.996277,158.472061 
	C673.371704,172.739120 675.538269,187.322739 675.533752,202.247833 
	C675.515076,263.568695 676.459473,324.907867 675.256470,386.205139 
	C674.112793,444.477264 646.757263,487.688538 595.264709,515.637207 
	C575.587036,526.317688 554.750366,530.245789 532.659119,530.224060 
	C410.017517,530.103699 287.375702,530.154663 164.733978,530.180359 
	C148.374390,530.183777 132.344467,527.600220 117.593628,520.779114 
	C68.541260,498.096161 37.732861,460.792908 28.980133,406.700256 
	C27.684256,398.691620 27.256653,390.466309 27.237717,382.339386 
	C27.097176,322.018646 26.572386,261.689941 27.340317,201.378647 
	C28.003326,149.307724 50.531197,108.305824 93.809273,79.005356 
	C97.378349,76.588989 101.270218,74.649384 105.339310,72.307556 
M132.166931,384.499969 
	C132.166931,396.292206 132.166931,408.084473 132.166931,420.095062 
	C278.470734,420.095062 424.289520,420.095062 570.125610,420.095062 
	C570.125610,335.341370 570.125610,250.966446 570.125610,166.437698 
	C424.075287,166.437698 278.372864,166.437698 132.775864,166.437698 
	C132.523956,166.992203 132.276642,167.282471 132.276459,167.572922 
	C132.228607,239.548584 132.198013,311.524261 132.166931,384.499969 
z"/>
<path fill="#000000" opacity="1.000000" stroke="none" 
	d="
M770.162292,252.999954 
	C770.391602,231.848694 769.863953,211.156052 770.990479,190.553864 
	C774.524536,125.920731 823.939697,70.573669 887.648865,59.325050 
	C894.498047,58.115749 901.556641,57.602360 908.518799,57.596622 
	C1031.337158,57.495434 1154.156128,57.322063 1276.973877,57.614170 
	C1332.610352,57.746494 1373.398438,83.992592 1400.776123,131.583878 
	C1413.379639,153.492676 1418.821655,177.603577 1418.827393,202.875092 
	C1418.851440,309.862122 1418.837646,416.849152 1418.837646,523.836182 
	C1418.837646,525.806335 1418.837646,527.776489 1418.837646,530.109314 
	C1383.739624,530.109314 1349.039062,530.109314 1313.875000,530.109314 
	C1313.875000,408.933502 1313.875000,287.860870 1313.875000,166.477448 
	C1167.671387,166.477448 1021.929504,166.477448 875.679749,166.477448 
	C875.679749,287.502960 875.679749,408.580139 875.679749,530.066528 
	C840.326904,530.066528 805.480225,530.066528 770.162292,530.066528 
	C770.162292,437.735260 770.162292,345.617615 770.162292,252.999954 
z"/>
<path fill="#000000" opacity="1.000000" stroke="none" 
	d="
M723.999756,1006.475952 
	C641.345703,1006.476013 559.180481,1005.636841 477.040833,1006.724915 
	C403.088135,1007.704468 342.139771,952.448181 333.201843,878.972229 
	C332.565582,873.741699 332.435150,868.449585 332.045624,862.841919 
	C367.349731,862.841919 402.078064,862.841919 437.289307,862.841919 
	C437.289307,874.217346 437.289307,885.472717 437.289307,897.122437 
	C627.790894,897.122437 817.810913,897.122437 1008.313293,897.122437 
	C1008.313293,885.880615 1008.313293,874.625610 1008.313293,862.950562 
	C1043.643188,862.950562 1078.493042,862.950562 1113.720947,862.950562 
	C1113.438110,878.306396 1111.455322,893.233459 1106.346802,907.558228 
	C1087.663086,959.948425 1051.878784,993.212280 996.776672,1004.329468 
	C989.330505,1005.831726 981.575500,1006.374329 973.961853,1006.387268 
	C890.807983,1006.528503 807.653870,1006.475830 723.999756,1006.475952 
z"/>
<path fill="#000000" opacity="1.000000" stroke="none" 
	d="
M773.064209,729.165771 
	C770.280151,729.165771 767.985779,729.165771 765.560120,729.165771 
	C763.344177,703.325745 767.771973,680.548950 790.645020,665.104004 
	C799.266357,659.282532 808.890686,656.494507 819.349609,656.506897 
	C855.332214,656.549438 891.315002,656.514221 927.297668,656.526062 
	C956.881470,656.535828 981.274902,680.600769 981.820862,710.348389 
	C981.933105,716.463318 981.837158,722.582092 981.837158,729.165771 
	C912.067688,729.165771 842.810791,729.165771 773.064209,729.165771 
z"/>
<path fill="#000000" opacity="1.000000" stroke="none" 
	d="
M668.220459,676.828491 
	C680.776489,692.391235 681.563416,710.264954 680.108887,728.915161 
	C608.230042,728.915161 536.458069,728.915161 464.672211,728.915161 
	C459.549286,693.526978 475.839417,665.064514 507.383026,657.637939 
	C511.064209,656.771301 514.972412,656.577942 518.776489,656.569580 
	C553.936829,656.492004 589.098572,656.688721 624.257568,656.454956 
	C642.130554,656.336121 656.577454,662.969482 668.220459,676.828491 
z"/>
<path fill="none" opacity="1.000000" stroke="none" 
	d="
M132.166931,383.999939 
	C132.198013,311.524261 132.228607,239.548584 132.276459,167.572922 
	C132.276642,167.282471 132.523956,166.992203 132.775864,166.437698 
	C278.372864,166.437698 424.075287,166.437698 570.125610,166.437698 
	C570.125610,250.966446 570.125610,335.341370 570.125610,420.095062 
	C424.289520,420.095062 278.470734,420.095062 132.166931,420.095062 
	C132.166931,408.084473 132.166931,396.292206 132.166931,383.999939 
z"/>
</svg>